%TF.GenerationSoftware,KiCad,Pcbnew,10.0.6*%
%TF.CreationDate,2026-09-28T17:14:50+05:30*%
%TF.ProjectId,Active_Low_Pass_Filter,41637469-7665-45f4-9c6f-775f50617373,rev?*%
%TF.SameCoordinates,Original*%
%TF.FileFunction,Copper,L1,Top*%
%TF.FilePolarity,Positive*%
%FSLAX46Y46*%
G04 Gerber Fmt 4.6, Leading zero omitted, Abs format (unit mm)*
G04 Created by KiCad (PCBNEW 10.0.6) date 2026-09-28 17:14:50*
%MOMM*%
%LPD*%
G01*
G04 APERTURE LIST*
G04 Aperture macros list*
%AMRoundRect*
0 Rectangle with rounded corners*
0 $1 Rounding radius*
0 $2 $3 $4 $5 $6 $7 $8 $9 X,Y pos of 4 corners*
0 Add a 4 corners polygon primitive as box body*
4,1,4,$2,$3,$4,$5,$6,$7,$8,$9,$2,$3,0*
0 Add four circle primitives for the rounded corners*
1,1,$1+$1,$2,$3*
1,1,$1+$1,$4,$5*
1,1,$1+$1,$6,$7*
1,1,$1+$1,$8,$9*
0 Add four rect primitives between the rounded corners*
20,1,$1+$1,$2,$3,$4,$5,0*
20,1,$1+$1,$4,$5,$6,$7,0*
20,1,$1+$1,$6,$7,$8,$9,0*
20,1,$1+$1,$8,$9,$2,$3,0*%
G04 Aperture macros list end*
%TA.AperFunction,SMDPad,CuDef*%
%ADD10RoundRect,0.250000X-0.262500X-0.450000X0.262500X-0.450000X0.262500X0.450000X-0.262500X0.450000X0*%
%TD*%
%TA.AperFunction,SMDPad,CuDef*%
%ADD11RoundRect,0.250000X-0.250000X-0.475000X0.250000X-0.475000X0.250000X0.475000X-0.250000X0.475000X0*%
%TD*%
%TA.AperFunction,SMDPad,CuDef*%
%ADD12RoundRect,0.150000X-0.825000X-0.150000X0.825000X-0.150000X0.825000X0.150000X-0.825000X0.150000X0*%
%TD*%
%TA.AperFunction,Conductor*%
%ADD13C,0.200000*%
%TD*%
G04 APERTURE END LIST*
D10*
%TO.P,R1,1*%
%TO.N,/IN*%
X180242500Y-53555000D03*
%TO.P,R1,2*%
%TO.N,Net-(C1-Pad1)*%
X182067500Y-53555000D03*
%TD*%
D11*
%TO.P,C1,1*%
%TO.N,Net-(C1-Pad1)*%
X175775000Y-53585000D03*
%TO.P,C1,2*%
%TO.N,GND*%
X177675000Y-53585000D03*
%TD*%
D12*
%TO.P,U1,1*%
%TO.N,Net-(C2-Pad1)*%
X176250000Y-46955000D03*
%TO.P,U1,2,-_2*%
%TO.N,unconnected-(U1A---Pad2)*%
X176250000Y-48225000D03*
%TO.P,U1,3,+_3*%
%TO.N,Net-(U1A-+)*%
X176250000Y-49495000D03*
%TO.P,U1,4*%
%TO.N,N/C*%
X176250000Y-50765000D03*
%TO.P,U1,5*%
X181200000Y-50765000D03*
%TO.P,U1,6*%
X181200000Y-49495000D03*
%TO.P,U1,7*%
X181200000Y-48225000D03*
%TO.P,U1,8*%
X181200000Y-46955000D03*
%TD*%
D11*
%TO.P,C2,1*%
%TO.N,Net-(C2-Pad1)*%
X175775000Y-56595000D03*
%TO.P,C2,2*%
%TO.N,Net-(C1-Pad1)*%
X177675000Y-56595000D03*
%TD*%
D10*
%TO.P,R2,1*%
%TO.N,Net-(C1-Pad1)*%
X180242500Y-56505000D03*
%TO.P,R2,2*%
%TO.N,Net-(U1A-+)*%
X182067500Y-56505000D03*
%TD*%
%TO.N,Net-(C1-Pad1)*%
D13*
X182564744Y-57505000D02*
X182880000Y-57189744D01*
X180242500Y-56505000D02*
X181242500Y-57505000D01*
X181242500Y-57505000D02*
X182564744Y-57505000D01*
X182880000Y-57189744D02*
X182880000Y-54367500D01*
X178695000Y-56505000D02*
X180242500Y-56505000D01*
X175775000Y-53585000D02*
X178695000Y-56505000D01*
X182880000Y-54367500D02*
X182067500Y-53555000D01*
%TO.N,Net-(C2-Pad1)*%
X174975000Y-55795000D02*
X175775000Y-56595000D01*
X176250000Y-46955000D02*
X175275001Y-46955000D01*
X175275001Y-46955000D02*
X174975000Y-47255001D01*
X174975000Y-47255001D02*
X174975000Y-55795000D01*
%TO.N,Net-(U1A-+)*%
X181055000Y-55492500D02*
X182067500Y-56505000D01*
X181055000Y-52870256D02*
X181055000Y-55492500D01*
X177679744Y-49495000D02*
X181055000Y-52870256D01*
X176250000Y-49495000D02*
X177679744Y-49495000D01*
%TD*%
%TA.AperFunction,Conductor*%
%TO.N,GND*%
G36*
X177930703Y-50595640D02*
G01*
X177937181Y-50601672D01*
X179608550Y-52273041D01*
X179642035Y-52334364D01*
X179637051Y-52404056D01*
X179595179Y-52459989D01*
X179585966Y-52466261D01*
X179511342Y-52512289D01*
X179387289Y-52636342D01*
X179295187Y-52785663D01*
X179295185Y-52785668D01*
X179294687Y-52787172D01*
X179240001Y-52952203D01*
X179240001Y-52952204D01*
X179240000Y-52952204D01*
X179229500Y-53054983D01*
X179229500Y-54055001D01*
X179229501Y-54055019D01*
X179240000Y-54157796D01*
X179240001Y-54157799D01*
X179258193Y-54212697D01*
X179295186Y-54324334D01*
X179387288Y-54473656D01*
X179511344Y-54597712D01*
X179660666Y-54689814D01*
X179827203Y-54744999D01*
X179929991Y-54755500D01*
X180330500Y-54755499D01*
X180397539Y-54775183D01*
X180443294Y-54827987D01*
X180454500Y-54879499D01*
X180454500Y-55180500D01*
X180434815Y-55247539D01*
X180382011Y-55293294D01*
X180330500Y-55304500D01*
X179929998Y-55304500D01*
X179929980Y-55304501D01*
X179827203Y-55315000D01*
X179827200Y-55315001D01*
X179660668Y-55370185D01*
X179660663Y-55370187D01*
X179511342Y-55462289D01*
X179387289Y-55586342D01*
X179295187Y-55735663D01*
X179295185Y-55735668D01*
X179267405Y-55819504D01*
X179227632Y-55876949D01*
X179163116Y-55903772D01*
X179149699Y-55904500D01*
X178995098Y-55904500D01*
X178928059Y-55884815D01*
X178907417Y-55868181D01*
X178474421Y-55435185D01*
X178040366Y-55001130D01*
X178006882Y-54939809D01*
X178011866Y-54870118D01*
X178053738Y-54814184D01*
X178089044Y-54795745D01*
X178244119Y-54744358D01*
X178244124Y-54744356D01*
X178393345Y-54652315D01*
X178517315Y-54528345D01*
X178609356Y-54379124D01*
X178609358Y-54379119D01*
X178664505Y-54212697D01*
X178664506Y-54212690D01*
X178674999Y-54109986D01*
X178675000Y-54109973D01*
X178675000Y-53835000D01*
X177799000Y-53835000D01*
X177731961Y-53815315D01*
X177686206Y-53762511D01*
X177675000Y-53711000D01*
X177675000Y-53585000D01*
X177549000Y-53585000D01*
X177481961Y-53565315D01*
X177436206Y-53512511D01*
X177425000Y-53461000D01*
X177425000Y-53335000D01*
X177925000Y-53335000D01*
X178674999Y-53335000D01*
X178674999Y-53060028D01*
X178674998Y-53060013D01*
X178664505Y-52957302D01*
X178609358Y-52790880D01*
X178609356Y-52790875D01*
X178517315Y-52641654D01*
X178393345Y-52517684D01*
X178244124Y-52425643D01*
X178244119Y-52425641D01*
X178077697Y-52370494D01*
X178077690Y-52370493D01*
X177974986Y-52360000D01*
X177925000Y-52360000D01*
X177925000Y-53335000D01*
X177425000Y-53335000D01*
X177425000Y-52360000D01*
X177424999Y-52359999D01*
X177375029Y-52360000D01*
X177375011Y-52360001D01*
X177272302Y-52370494D01*
X177105880Y-52425641D01*
X177105875Y-52425643D01*
X176956654Y-52517684D01*
X176832683Y-52641655D01*
X176832679Y-52641660D01*
X176830826Y-52644665D01*
X176829018Y-52646290D01*
X176828202Y-52647323D01*
X176828025Y-52647183D01*
X176778874Y-52691385D01*
X176709911Y-52702601D01*
X176645831Y-52674752D01*
X176619753Y-52644653D01*
X176619737Y-52644628D01*
X176617712Y-52641344D01*
X176493656Y-52517288D01*
X176400759Y-52459989D01*
X176344336Y-52425187D01*
X176344331Y-52425185D01*
X176287551Y-52406370D01*
X176177797Y-52370001D01*
X176177795Y-52370000D01*
X176075016Y-52359500D01*
X176075009Y-52359500D01*
X175699500Y-52359500D01*
X175632461Y-52339815D01*
X175586706Y-52287011D01*
X175575500Y-52235500D01*
X175575500Y-51689500D01*
X175595185Y-51622461D01*
X175647989Y-51576706D01*
X175699500Y-51565500D01*
X177140686Y-51565500D01*
X177140694Y-51565500D01*
X177177569Y-51562598D01*
X177177571Y-51562597D01*
X177177573Y-51562597D01*
X177219191Y-51550505D01*
X177335398Y-51516744D01*
X177476865Y-51433081D01*
X177593081Y-51316865D01*
X177676744Y-51175398D01*
X177722598Y-51017569D01*
X177725500Y-50980694D01*
X177725500Y-50689353D01*
X177745185Y-50622314D01*
X177797989Y-50576559D01*
X177867147Y-50566615D01*
X177930703Y-50595640D01*
G37*
%TD.AperFunction*%
%TD*%
M02*
